<?xml version="1.0" standalone="no"?>
<!DOCTYPE svg PUBLIC "-//W3C//DTD SVG 20010904//EN"
 "http://www.w3.org/TR/2001/REC-SVG-20010904/DTD/svg10.dtd">
<svg version="1.0" xmlns="http://www.w3.org/2000/svg"
 width="391.000000pt" height="391.000000pt" viewBox="0 0 391.000000 391.000000"
 preserveAspectRatio="xMidYMid meet">
<metadata>
Created by potrace 1.11, written by Peter Selinger 2001-2013
</metadata>
<g transform="translate(0.000000,391.000000) scale(0.100000,-0.100000)"
fill="#000000" stroke="none">
<path d="M1560 3695 c-179 -28 -344 -97 -485 -202 -110 -82 -292 -273 -332
-348 -83 -158 -149 -385 -159 -549 -7 -121 20 -619 40 -731 62 -347 192 -748
321 -993 103 -195 166 -281 277 -382 56 -50 122 -103 147 -118 26 -15 69 -42
96 -60 78 -52 223 -118 308 -141 94 -26 254 -28 351 -6 180 42 484 223 633
377 85 88 234 338 299 500 107 266 194 568 240 823 20 112 47 610 40 731 -10
164 -76 391 -159 549 -40 75 -222 266 -332 348 -144 107 -308 174 -495 203
-126 19 -667 18 -790 -1z"/>
</g>
</svg>
